<svg xmlns="http://www.w3.org/2000/svg" viewBox="0 0 1000 1000"><path d="M701.3 428.9c-9.5 0.3-17.3 8.3-17.3 17.9 0 10.1 8.2 18.1 18.2 17.9 9.5-0.2 17.5-8.3 17.5-17.8C719.7 437.2 711 428.7 701.3 428.9z"/><path d="M500 7.5C228 7.5 7.5 228 7.5 500S228 992.5 500 992.5 992.5 772 992.5 500 772 7.5 500 7.5zM381.5 780c-9.2-8-18.8-15.5-27.5-24 -37.3-36.8-48.9-82.1-45-133.2 2.8-36.6 13.5-70.6 30.3-101.6 -17.3-11.4-35.7-20.7-50.6-33.9 -55.1-49-75.7-110.9-56.2-182 19.8-72.1 68.9-117.1 143-129.7 101.4-17.3 193.2 51.7 207.3 153.2 10.9 78.2-34.7 158.9-108.5 187.8 -45.4 17.8-76 50.1-98.8 91.3 -13.6 24.6-22.5 50.9-22.8 79.5 -0.3 30 9.1 56.7 26.6 80.7 2 2.8 3.7 5.8 5.6 8.6C383.8 777.8 382.6 778.9 381.5 780zM730.9 632.8c-14 21-28.7 41.5-42.7 62.5 -3 4.4-5.1 9.9-5.9 15.2 -9.4 67.8-67.3 118.3-136 118.3 -72.4 0-132.4-55.9-137.3-127.9 -4.8-70.9 46.5-135.4 117-144.9 52.2-7 95.5 10.7 128.5 52 4.3 5.4 8.4 7.9 15.4 7.6 17-0.7 34.1-0.9 51.2-0.4 4.3 0.1 10 2.4 12.2 5.7C735 623.2 733.1 629.5 730.9 632.8zM684.7 556.8c-61.7 0-103.9-64.7-76.7-120.1 8.6-17.5 10.9-35.1 13.5-53.4 0.7-4.9 1.1-9.8 1.9-14.6 1.4-8.2 5.7-9.9 12-4.5 7 6 14.1 11.9 20.3 18.5 4.8 5.2 9.8 6.2 16.5 5.2 42.6-6.4 82.6 19.5 94.5 60.7C782.1 502.5 741 556.8 684.7 556.8z"/></svg>
